<svg width="460" height="460" viewBox="0 0 460 460" fill="none" xmlns="http://www.w3.org/2000/svg">
<path d="M123.839 143.532C110.019 139.179 97.8222 136.345 87.2489 135.032C68.3689 132.672 48.5089 144.172 48.0089 164.882C47.7989 173.522 51.3289 182.862 55.9189 190.362C78.5056 227.262 103.056 266.619 129.569 308.432C158.199 353.582 186.369 399.042 214.969 444.222C219.819 451.882 226.469 456.582 235.679 452.452" stroke="#A3E1D7" stroke-width="2"/>
<path d="M235.679 452.452C238.906 450.352 241.592 447.545 243.739 444.032C294.432 361.138 345.132 278.248 395.839 195.362C398.786 190.542 401.622 185.652 404.349 180.692C413.849 163.402 414.549 145.652 407.539 127.112" stroke="#ACE8DC" stroke-width="2"/>
<path d="M407.539 127.112C396.232 100.652 376.496 88.2818 348.329 90.0018C343.509 90.2918 338.189 91.6218 333.179 92.5318" stroke="#A3E1D7" stroke-width="2"/>
<path d="M333.179 92.5319C323.509 44.4619 281.449 8.97186 232.299 7.09186" stroke="#FFE9B1" stroke-width="2"/>
<path d="M232.299 7.09187C193.519 5.43187 156.129 26.4019 135.949 59.1319C120.122 84.7919 116.086 112.925 123.839 143.532" stroke="#FFF0C3" stroke-width="2"/>
<path d="M232.299 7.09186C230.859 7.29186 230.132 7.98852 230.119 9.18185C230.116 9.35474 230.055 9.5213 229.946 9.65402C229.837 9.78674 229.686 9.8777 229.519 9.91187C226.632 10.5119 225.292 12.3185 225.499 15.3318C225.519 15.6518 225.689 15.8119 226.009 15.8119H226.459C226.526 15.8128 226.591 15.8323 226.647 15.8682C226.704 15.9042 226.749 15.9551 226.778 16.0153C226.807 16.0755 226.819 16.1427 226.812 16.2092C226.805 16.2757 226.78 16.3389 226.739 16.3918C225.632 17.7718 225.766 18.6919 227.139 19.1519C227.267 19.1943 227.376 19.2799 227.449 19.3945C227.521 19.5091 227.553 19.6458 227.539 19.7819L227.009 24.2819C226.962 24.6885 227.076 25.0485 227.349 25.3618C228.509 26.6618 228.472 27.8219 227.239 28.8419C227.124 28.9383 227.037 29.0636 226.988 29.2045C226.939 29.3454 226.929 29.4965 226.959 29.6418C227.229 30.9718 227.459 31.8419 226.629 32.9719C226.029 33.7852 225.329 33.9585 224.529 33.4919C224.316 33.3797 224.069 33.3524 223.837 33.4153C223.605 33.4782 223.406 33.6267 223.279 33.8309C223.152 34.0351 223.107 34.2798 223.154 34.5156C223.2 34.7515 223.334 34.961 223.529 35.1019L229.219 38.8618C229.519 39.0618 229.489 39.1752 229.129 39.2019L226.559 39.3719C226.559 39.3919 226.559 39.4152 226.559 39.4419C226.559 39.4572 226.562 39.4723 226.569 39.4864C226.575 39.5004 226.585 39.5131 226.597 39.5234C226.609 39.5338 226.624 39.5416 226.64 39.5465C226.655 39.5514 226.672 39.5532 226.689 39.5518C227.582 39.4652 228.362 39.5352 229.029 39.7619" stroke="#FFDA74" stroke-width="2"/>
<path d="M229.029 39.7618C198.569 40.6752 176.579 54.1285 163.059 80.1218C154.405 96.7685 152.869 114.592 158.449 133.592" stroke="#FFA47D" stroke-width="2"/>
<path d="M158.449 133.592L161.729 142.342" stroke="#FF8E6B" stroke-width="2"/>
<path d="M161.729 142.342C160.262 142.222 159.505 141.692 159.459 140.752C159.439 140.425 159.352 140.118 159.199 139.832C158.106 137.818 157.456 136.459 157.249 135.752C155.369 129.322 151.169 131.562 147.209 133.962C145.279 135.132 142.389 136.072 139.919 137.952C137.372 139.892 134.319 140.885 130.759 140.932C130.439 140.932 130.149 141.022 129.889 141.202C128.749 141.975 127.506 142.479 126.159 142.712C125.946 142.752 125.916 142.852 126.069 143.012L126.339 143.272C126.379 143.31 126.406 143.36 126.418 143.414C126.43 143.468 126.425 143.525 126.405 143.577C126.385 143.63 126.351 143.676 126.305 143.71C126.26 143.745 126.206 143.766 126.149 143.772L125.509 143.822C125.209 143.849 125.146 143.982 125.319 144.222C125.672 144.709 125.819 145.249 125.759 145.842C125.732 146.095 125.822 146.299 126.029 146.452C127.062 147.212 127.192 148.235 126.419 149.522" stroke="#FFDA74" stroke-width="2"/>
<path d="M126.419 149.522L123.839 143.532" stroke="#A3D19B" stroke-width="2"/>
<path d="M186.559 171.902L200.239 242.312" stroke="#F5A87F" stroke-width="2"/>
<path d="M333.179 92.5319L334.719 101.062" stroke="#A3CB89" stroke-width="2"/>
<path d="M334.719 101.062C334.446 101.595 334.336 102.008 334.389 102.302C334.43 102.53 334.39 102.766 334.277 102.968C334.163 103.17 333.983 103.326 333.766 103.41C333.55 103.494 333.311 103.5 333.091 103.428C332.871 103.355 332.683 103.208 332.559 103.012C323.426 88.6651 311.722 76.9684 297.449 67.9218C289.556 62.9284 281.636 57.9485 273.689 52.9818C273.56 52.9004 273.41 52.8563 273.257 52.8545C273.103 52.8528 272.952 52.8934 272.819 52.9718L271.269 53.8718" stroke="#F4C04D" stroke-width="2"/>
<path d="M271.269 53.8719C263.736 48.4052 255.266 44.5152 245.859 42.2019" stroke="#FF8759" stroke-width="2"/>
<path d="M245.859 42.2018C240.525 40.8818 234.915 40.0685 229.029 39.7618" stroke="#FF9D6B" stroke-width="2"/>
<path d="M245.859 42.2019C242.419 47.8819 239.019 52.8086 235.659 56.9819C232.369 61.0719 227.159 64.5919 223.889 67.5219C218.009 72.7885 211.742 77.5619 205.089 81.8419C203.482 82.8752 202.156 84.1086 201.109 85.5419C198.029 89.7419 195.059 94.0152 192.199 98.3619C183.949 110.892 178.059 119.452 171.479 130.292C169.599 133.382 167.289 134.312 164.299 135.942C164.019 136.095 163.722 136.139 163.409 136.072C162.896 135.952 162.519 136.069 162.279 136.422C162.099 136.689 161.856 136.782 161.549 136.702C160.762 136.509 160.336 136.005 160.269 135.192C160.273 135.163 160.265 135.133 160.247 135.11C160.23 135.086 160.203 135.071 160.174 135.067C160.145 135.063 160.115 135.071 160.092 135.089C160.068 135.106 160.053 135.133 160.049 135.162L159.929 135.532C159.912 135.576 159.881 135.613 159.842 135.639C159.802 135.664 159.755 135.676 159.708 135.673C159.661 135.669 159.616 135.651 159.58 135.62C159.544 135.589 159.519 135.548 159.509 135.502C159.349 134.629 158.996 133.992 158.449 133.592" stroke="#FF5162" stroke-width="2"/>
<path d="M407.539 127.112C407.372 127.125 407.239 127.168 407.139 127.242C406.939 127.388 406.746 127.382 406.559 127.222C394.826 117.042 381.119 112.698 365.439 114.192C364.679 114.258 364.346 114.672 364.439 115.432C368.729 151.982 352.229 187.872 321.059 207.632C316.806 210.325 312.579 212.912 308.379 215.392C308.137 215.536 307.934 215.737 307.789 215.978C307.644 216.219 307.561 216.492 307.549 216.772C307.396 220.245 306.116 223.225 303.709 225.712C303.555 225.872 303.444 226.069 303.385 226.284C303.327 226.498 303.324 226.724 303.376 226.939C303.428 227.155 303.533 227.353 303.682 227.516C303.831 227.679 304.019 227.802 304.229 227.872C305.002 228.132 305.212 228.768 304.859 229.782C303.729 233.042 301.259 234.702 305.519 237.562C305.644 237.644 305.745 237.758 305.814 237.891C305.882 238.024 305.915 238.172 305.909 238.322C305.782 241.402 305.115 244.359 303.909 247.192C303.755 247.545 303.769 247.895 303.949 248.242L305.519 251.232C305.616 251.427 305.647 251.644 305.609 251.852C304.989 255.282 302.879 257.922 302.199 260.922C301.539 263.808 301.072 266.742 300.799 269.722C300.766 270.062 300.825 270.382 300.979 270.682C301.265 271.268 301.116 271.715 300.529 272.022C300.229 272.175 300.049 272.418 299.989 272.752C298.909 278.822 295.489 282.782 294.219 289.052C292.539 297.302 289.889 305.152 286.009 314.732C283.609 320.642 282.209 327.092 279.149 332.322C276.649 336.602 273.822 340.655 270.669 344.482C268.969 346.552 268.479 349.032 266.949 351.322C264.739 354.642 264.009 359.562 262.239 361.902C260.479 364.215 258.989 366.689 257.769 369.322C255.502 374.202 253.296 379.108 251.149 384.042C251.022 384.342 250.819 384.582 250.539 384.762C249.699 385.302 249.049 386.012 248.589 386.892C246.276 391.359 243.749 395.698 241.009 399.912C238.579 403.652 238.099 408.002 236.909 412.212C236.815 412.525 236.656 412.798 236.429 413.032C235.636 413.845 234.876 414.688 234.149 415.562C232.169 417.932 231.619 422.832 230.459 425.852C230.449 425.874 230.431 425.893 230.409 425.904C230.387 425.915 230.362 425.919 230.338 425.914C230.314 425.91 230.292 425.897 230.276 425.879C230.26 425.86 230.25 425.836 230.249 425.812V425.402C230.25 425.378 230.243 425.355 230.229 425.336C230.216 425.318 230.196 425.304 230.172 425.297C230.149 425.291 230.124 425.291 230.1 425.299C230.076 425.307 230.054 425.322 230.039 425.342C228.319 427.769 227.442 430.432 227.409 433.332C227.402 433.745 227.606 433.965 228.019 433.992L229.849 434.102C230.109 434.115 230.239 434.252 230.239 434.512C230.279 440.032 229.249 444.922 234.339 449.072C234.452 449.161 234.53 449.288 234.561 449.43C234.592 449.572 234.574 449.721 234.509 449.852C234.142 450.605 234.336 451.179 235.089 451.572C235.182 451.625 235.279 451.635 235.379 451.602C235.466 451.568 235.559 451.535 235.659 451.502C235.667 451.5 235.676 451.5 235.684 451.502C235.692 451.505 235.7 451.509 235.706 451.515C235.712 451.521 235.716 451.529 235.718 451.537C235.721 451.545 235.721 451.554 235.719 451.562C235.625 451.788 235.612 452.085 235.679 452.452" stroke="#50CAB4" stroke-width="2"/>
<path d="M126.419 149.522C133.419 166.662 142.609 177.182 155.949 192.492C167.802 206.092 179.846 219.532 192.079 232.812C194.539 235.492 197.149 239.372 200.239 242.312" stroke="#A3CB89" stroke-width="2"/>
<path d="M200.239 242.312L201.589 248.342" stroke="#99A0A6" stroke-width="2"/>
<path d="M201.589 248.342L209.609 286.182" stroke="#9996B9" stroke-width="2"/>
<path d="M209.609 286.182L199.239 276.242C199.019 276.029 198.759 275.879 198.459 275.792C197.826 275.605 197.596 275.692 197.769 276.052C197.799 276.114 197.815 276.182 197.816 276.252C197.816 276.321 197.801 276.389 197.771 276.452C197.741 276.514 197.697 276.569 197.643 276.612C197.589 276.656 197.526 276.686 197.459 276.702L195.579 277.102C195.512 277.116 195.45 277.146 195.397 277.189C195.344 277.232 195.302 277.287 195.275 277.35C195.247 277.413 195.235 277.481 195.24 277.549C195.244 277.617 195.264 277.683 195.299 277.742C197.139 280.812 195.759 281.782 196.529 284.872C196.979 286.702 196.659 287.832 195.719 289.322C195.486 289.689 195.562 289.975 195.949 290.182L197.709 291.102C197.847 291.174 197.968 291.274 198.065 291.396C198.162 291.518 198.232 291.66 198.271 291.81C198.309 291.961 198.316 292.119 198.29 292.272C198.264 292.426 198.205 292.572 198.119 292.702C194.526 298.082 190.092 302.669 184.819 306.462C184.514 306.676 184.286 306.981 184.169 307.332C182.509 312.312 181.459 314.172 177.749 317.882C177.522 318.115 177.439 318.392 177.499 318.712C178.199 322.382 174.879 324.762 173.779 328.342C173.742 328.466 173.676 328.579 173.587 328.673C173.499 328.767 173.39 328.839 173.269 328.882C171.816 329.382 170.906 330.399 170.539 331.932C170.479 332.185 170.576 332.279 170.829 332.212L173.739 331.462C173.845 331.433 173.958 331.433 174.064 331.46C174.171 331.488 174.269 331.542 174.349 331.619C174.428 331.695 174.486 331.791 174.518 331.897C174.55 332.002 174.553 332.114 174.529 332.222C173.916 335.088 173.916 337.942 174.529 340.782C174.569 340.988 174.666 341.019 174.819 340.872L175.059 340.622C175.326 340.355 175.629 340.305 175.969 340.472C176.689 340.825 177.479 340.799 178.339 340.392C178.502 340.315 178.634 340.185 178.714 340.023C178.794 339.862 178.817 339.678 178.779 339.502L178.449 338.032C178.434 337.956 178.438 337.877 178.46 337.804C178.483 337.73 178.524 337.664 178.579 337.612L178.799 337.382C178.856 337.318 178.935 337.278 179.02 337.269C179.105 337.261 179.191 337.285 179.259 337.337C179.327 337.389 179.373 337.464 179.388 337.549C179.403 337.633 179.385 337.72 179.339 337.792C178.592 339.165 178.789 340.199 179.929 340.892C180.249 341.085 180.416 341.369 180.429 341.742C180.569 345.892 179.419 349.852 179.709 353.772C180.136 359.505 180.362 365.249 180.389 371.002C180.389 371.282 180.472 371.532 180.639 371.752L181.529 372.942C181.547 372.964 181.571 372.98 181.599 372.987C181.627 372.993 181.656 372.991 181.682 372.98C181.708 372.968 181.73 372.949 181.744 372.924C181.758 372.899 181.763 372.87 181.759 372.842C181.732 372.742 181.729 372.642 181.749 372.542C181.764 372.472 181.796 372.407 181.842 372.353C181.888 372.299 181.947 372.257 182.014 372.231C182.08 372.205 182.152 372.197 182.223 372.205C182.294 372.214 182.361 372.24 182.419 372.282C185.879 374.822 188.002 378.169 188.789 382.322C188.862 382.709 189.066 383.005 189.399 383.212C190.626 383.979 191.059 385.155 190.699 386.742C190.626 387.069 190.699 387.359 190.919 387.612L193.009 390.062C193.229 390.329 193.329 390.635 193.309 390.982C193.209 392.582 193.486 394.115 194.139 395.582C194.165 395.648 194.179 395.716 194.179 395.782L194.229 399.252C194.229 399.319 194.206 399.379 194.159 399.432C194.059 399.532 193.952 399.622 193.839 399.702C193.619 399.862 193.582 400.059 193.729 400.292L210.059 425.762C210.372 426.255 210.496 426.212 210.429 425.632C210.316 424.692 210.546 423.845 211.119 423.092C211.332 422.812 211.399 422.502 211.319 422.162C210.899 420.282 210.852 418.389 211.179 416.482C211.259 415.995 211.459 415.942 211.779 416.322L212.789 417.522C212.962 417.729 213.089 417.705 213.169 417.452C213.529 416.359 213.699 415.249 213.679 414.122C213.649 412.502 214.139 411.422 214.649 409.982C214.707 409.821 214.822 409.688 214.973 409.61C215.124 409.532 215.297 409.515 215.459 409.562L217.579 410.172C217.984 410.288 218.418 410.254 218.802 410.076C219.185 409.898 219.493 409.588 219.669 409.202C221.089 406.042 223.829 403.692 225.389 401.212C228.469 396.279 231.329 391.225 233.969 386.052C234.102 385.799 234.482 385.539 235.109 385.272C235.416 385.139 235.632 384.919 235.759 384.612C237.152 381.265 239.062 378.245 241.489 375.552C241.716 375.299 241.852 375.005 241.899 374.672C242.619 370.122 246.889 367.782 245.679 362.582C245.602 362.26 245.648 361.921 245.809 361.632C247.229 359.059 249.056 356.802 251.289 354.862C251.562 354.629 251.882 354.532 252.249 354.572C253.809 354.765 255.182 354.319 256.369 353.232C256.669 352.952 256.862 352.615 256.949 352.222L258.269 346.362C258.342 346.035 258.489 345.745 258.709 345.492C259.629 344.445 260.106 343.192 260.139 341.732C260.146 341.325 260.349 341.075 260.749 340.982C265.199 339.952 269.999 339.492 271.929 334.992C278.699 319.232 280.569 302.812 285.729 285.032C291.819 264.032 297.909 242.892 303.159 221.672C303.729 219.402 303.119 217.542 300.599 217.372C300.246 217.345 299.979 217.485 299.799 217.792C298.566 219.839 296.816 221.279 294.549 222.112C294.489 222.132 294.479 222.122 294.519 222.082C296.139 220.402 297.399 218.462 298.299 216.262C298.446 215.902 298.329 215.775 297.949 215.882C296.582 216.269 295.516 217.045 294.749 218.212C294.416 218.719 294.249 218.669 294.249 218.062V215.422C294.249 215.286 294.279 215.152 294.338 215.032C294.398 214.912 294.483 214.81 294.589 214.732L297.429 212.602C297.736 212.369 297.899 212.062 297.919 211.682C298.039 209.495 298.809 207.562 300.229 205.882C301.369 204.542 301.209 204.365 299.749 205.352L296.709 207.402C296.429 207.589 296.119 207.705 295.779 207.752C293.932 207.999 292.429 208.782 291.269 210.102C285.989 216.149 280.652 221.302 275.259 225.562C273.286 227.122 270.992 228.019 268.379 228.252" stroke="#47C2B7" stroke-width="2"/>
<path d="M268.379 228.252L284.829 209.872" stroke="#A3CB89" stroke-width="2"/>
<path d="M271.269 53.8718C294.229 70.5418 306.039 99.4418 299.749 127.562" stroke="#F47443" stroke-width="2"/>
<path d="M299.749 127.562C285.415 116.342 271.199 105.319 257.099 94.4919C256.699 94.1852 255.269 92.9052 252.809 90.6519C251.282 89.2652 249.669 88.1986 247.969 87.4519" stroke="#DD2D49" stroke-width="2"/>
<path d="M247.969 87.4519C230.479 73.0319 203.719 80.0019 198.029 102.632C193.809 119.392 202.459 134.072 218.599 139.672" stroke="#FF9DA7" stroke-width="2"/>
<path d="M218.599 139.672L218.699 139.942C218.766 140.122 218.709 140.242 218.529 140.302C218.436 140.335 218.339 140.369 218.239 140.402C218.22 140.407 218.203 140.417 218.19 140.431C218.177 140.445 218.169 140.463 218.166 140.482C218.162 140.501 218.165 140.521 218.173 140.538C218.18 140.556 218.193 140.571 218.209 140.582C219.749 141.642 221.572 142.332 223.679 142.652C223.866 142.685 223.969 142.825 223.989 143.072C224.009 143.292 224.119 143.449 224.319 143.542L274.869 167.932" stroke="#DD2D49" stroke-width="2"/>
<path d="M274.869 167.932L269.819 172.382" stroke="#F47443" stroke-width="2"/>
<path d="M269.819 172.382C242.209 189.622 213.879 189.092 186.559 171.902" stroke="#F55C76" stroke-width="2"/>
<path d="M186.559 171.902C175.659 164.148 167.382 154.295 161.729 142.342" stroke="#FF8759" stroke-width="2"/>
<path d="M263.289 206.852L257.639 235.062" stroke="#F5A87F" stroke-width="2"/>
<path d="M257.639 235.062L254.529 233.822C254.196 233.689 253.936 233.775 253.749 234.082L253.619 234.312C253.559 234.412 253.472 234.455 253.359 234.442L245.599 233.702C245.192 233.662 244.952 233.842 244.879 234.242L244.499 236.372C244.432 236.759 244.202 236.969 243.809 237.002C241.022 237.215 238.252 237.085 235.499 236.612C235.072 236.539 234.742 236.569 234.509 236.702C234.129 236.922 234.016 237.272 234.169 237.752C234.296 238.119 234.166 238.309 233.779 238.322C232.619 238.355 231.599 238.709 230.719 239.382C230.452 239.589 230.152 239.712 229.819 239.752C224.489 240.452 221.759 243.842 217.249 244.792C216.902 244.865 216.646 245.055 216.479 245.362C216.346 245.609 216.142 245.659 215.869 245.512C215.536 245.339 215.182 245.289 214.809 245.362C210.909 246.152 205.159 244.092 202.969 248.072C202.961 248.084 202.95 248.094 202.937 248.1C202.925 248.107 202.91 248.109 202.896 248.108C202.882 248.107 202.868 248.102 202.856 248.094C202.844 248.086 202.835 248.075 202.829 248.062C202.802 247.982 202.776 247.899 202.749 247.812C202.738 247.771 202.718 247.733 202.691 247.701C202.665 247.668 202.631 247.641 202.594 247.622C202.556 247.604 202.515 247.593 202.472 247.591C202.43 247.589 202.388 247.596 202.349 247.612C202.002 247.745 201.749 247.989 201.589 248.342" stroke="#EB74AF" stroke-width="2"/>
<path d="M334.719 101.062C338.205 130.629 330.569 156.565 311.809 178.872C304.656 187.379 295.662 197.712 284.829 209.872" stroke="#98B773" stroke-width="2"/>
<path d="M284.829 209.872L284.819 208.202C284.819 207.869 284.652 207.715 284.319 207.742C279.826 208.102 274.642 207.795 268.769 206.822C267.929 206.689 266.102 206.699 263.289 206.852" stroke="#F4C04D" stroke-width="2"/>
<path d="M263.289 206.852L269.819 172.382" stroke="#E9956A" stroke-width="2"/>
<path d="M274.869 167.932C287.769 156.992 296.062 143.535 299.749 127.562" stroke="#D1653D" stroke-width="2"/>
<path d="M256.649 241.292L257.639 235.062" stroke="#F59F92" stroke-width="2"/>
<path d="M209.609 286.182C210.129 289.109 210.822 292.499 211.689 296.352C213.519 304.522 220.089 311.002 228.979 309.792C241.149 308.132 243.859 298.332 246.129 287.982C249.062 274.589 251.999 261.195 254.939 247.802C255.426 245.595 255.996 243.425 256.649 241.292" stroke="#9996C0" stroke-width="2"/>
<path d="M256.649 241.292L268.379 228.252" stroke="#A3CB90" stroke-width="2"/>
<path d="M247.969 87.4519C271.269 111.072 250.549 147.202 218.599 139.672" stroke="#DD8FA1" stroke-width="2"/>
<path d="M232.299 7.09187C230.859 7.29187 230.132 7.98853 230.119 9.18187C230.116 9.35475 230.055 9.52131 229.946 9.65403C229.837 9.78676 229.686 9.87771 229.519 9.91188C226.632 10.5119 225.292 12.3185 225.499 15.3319C225.519 15.6519 225.689 15.8119 226.009 15.8119H226.459C226.526 15.8128 226.591 15.8323 226.647 15.8682C226.704 15.9042 226.749 15.9551 226.778 16.0153C226.807 16.0755 226.819 16.1427 226.812 16.2092C226.805 16.2757 226.78 16.3389 226.739 16.3919C225.632 17.7719 225.766 18.6919 227.139 19.1519C227.267 19.1943 227.376 19.2799 227.449 19.3945C227.522 19.5091 227.553 19.6458 227.539 19.7819L227.009 24.2819C226.962 24.6885 227.076 25.0485 227.349 25.3619C228.509 26.6619 228.472 27.8219 227.239 28.8419C227.124 28.9383 227.037 29.0636 226.988 29.2045C226.939 29.3454 226.929 29.4965 226.959 29.6419C227.229 30.9719 227.459 31.8419 226.629 32.9719C226.029 33.7852 225.329 33.9585 224.529 33.4919C224.316 33.3797 224.069 33.3524 223.837 33.4153C223.605 33.4782 223.406 33.6267 223.279 33.8309C223.152 34.0351 223.107 34.2798 223.154 34.5156C223.2 34.7515 223.334 34.961 223.529 35.1019L229.219 38.8619C229.519 39.0619 229.489 39.1752 229.129 39.2019L226.559 39.3719C226.559 39.3919 226.559 39.4152 226.559 39.4419C226.559 39.4572 226.562 39.4724 226.569 39.4864C226.575 39.5004 226.585 39.5131 226.597 39.5234C226.609 39.5338 226.624 39.5416 226.64 39.5466C226.656 39.5515 226.672 39.5533 226.689 39.5519C227.582 39.4652 228.362 39.5352 229.029 39.7619C198.569 40.6752 176.579 54.1285 163.059 80.1219C154.406 96.7685 152.869 114.592 158.449 133.592L161.729 142.342C160.262 142.222 159.506 141.692 159.459 140.752C159.439 140.425 159.352 140.119 159.199 139.832C158.106 137.819 157.456 136.459 157.249 135.752C155.369 129.322 151.169 131.562 147.209 133.962C145.279 135.132 142.389 136.072 139.919 137.952C137.372 139.892 134.319 140.885 130.759 140.932C130.439 140.932 130.149 141.022 129.889 141.202C128.749 141.975 127.506 142.479 126.159 142.712C125.946 142.752 125.916 142.852 126.069 143.012L126.339 143.272C126.379 143.311 126.406 143.36 126.418 143.414C126.43 143.468 126.425 143.525 126.406 143.577C126.386 143.63 126.351 143.676 126.305 143.71C126.26 143.745 126.206 143.766 126.149 143.772L125.509 143.822C125.209 143.849 125.146 143.982 125.319 144.222C125.672 144.709 125.819 145.249 125.759 145.842C125.732 146.095 125.822 146.299 126.029 146.452C127.062 147.212 127.192 148.235 126.419 149.522L123.839 143.532C116.086 112.925 120.122 84.7919 135.949 59.1319C156.129 26.4019 193.519 5.43187 232.299 7.09187Z" fill="#FFE086"/>
<path d="M232.299 7.09192C281.449 8.97192 323.509 44.4619 333.179 92.5319L334.719 101.062C334.446 101.595 334.336 102.009 334.389 102.302C334.43 102.53 334.39 102.766 334.276 102.968C334.163 103.17 333.983 103.327 333.766 103.41C333.55 103.494 333.311 103.501 333.091 103.428C332.871 103.355 332.683 103.208 332.559 103.012C323.426 88.6653 311.722 76.9686 297.449 67.9219C289.556 62.9286 281.636 57.9486 273.689 52.9819C273.56 52.9005 273.41 52.8564 273.257 52.8547C273.103 52.8529 272.952 52.8935 272.819 52.9719L271.269 53.8719C263.736 48.4053 255.266 44.5153 245.859 42.2019C240.526 40.8819 234.916 40.0686 229.029 39.7619C228.362 39.5353 227.582 39.4652 226.689 39.5519C226.672 39.5533 226.655 39.5515 226.64 39.5466C226.624 39.5417 226.609 39.5338 226.597 39.5235C226.585 39.5131 226.575 39.5005 226.569 39.4865C226.562 39.4724 226.559 39.4573 226.559 39.4419C226.559 39.4153 226.559 39.3919 226.559 39.3719L229.129 39.2019C229.489 39.1753 229.519 39.0619 229.219 38.8619L223.529 35.1019C223.334 34.961 223.2 34.7515 223.154 34.5157C223.107 34.2798 223.152 34.0352 223.279 33.831C223.406 33.6268 223.605 33.4783 223.837 33.4153C224.069 33.3524 224.316 33.3798 224.529 33.4919C225.329 33.9586 226.029 33.7853 226.629 32.9719C227.459 31.8419 227.229 30.9719 226.959 29.6419C226.929 29.4966 226.939 29.3454 226.988 29.2046C227.037 29.0637 227.124 28.9383 227.239 28.8419C228.472 27.8219 228.509 26.6619 227.349 25.3619C227.076 25.0486 226.962 24.6886 227.009 24.2819L227.539 19.7819C227.553 19.6458 227.521 19.5092 227.449 19.3946C227.376 19.28 227.267 19.1944 227.139 19.1519C225.766 18.6919 225.632 17.7719 226.739 16.3919C226.78 16.339 226.805 16.2757 226.812 16.2092C226.819 16.1427 226.807 16.0756 226.778 16.0154C226.749 15.9552 226.704 15.9042 226.647 15.8683C226.591 15.8324 226.526 15.8128 226.459 15.8119H226.009C225.689 15.8119 225.519 15.6519 225.499 15.3319C225.292 12.3186 226.632 10.5119 229.519 9.91193C229.686 9.87776 229.837 9.78681 229.946 9.65408C230.055 9.52136 230.116 9.3548 230.119 9.18192C230.132 7.98858 230.859 7.29192 232.299 7.09192Z" fill="#FFD362"/>
<path d="M229.029 39.762C234.916 40.0686 240.526 40.882 245.859 42.202C242.419 47.882 239.019 52.8086 235.659 56.982C232.369 61.072 227.159 64.5919 223.889 67.5219C218.009 72.7886 211.742 77.5619 205.089 81.8419C203.482 82.8753 202.156 84.1086 201.109 85.542C198.029 89.742 195.059 94.0153 192.199 98.3619C183.949 110.892 178.059 119.452 171.479 130.292C169.599 133.382 167.289 134.312 164.299 135.942C164.019 136.095 163.722 136.139 163.409 136.072C162.896 135.952 162.519 136.069 162.279 136.422C162.099 136.689 161.856 136.782 161.549 136.702C160.762 136.509 160.336 136.005 160.269 135.192C160.273 135.163 160.265 135.133 160.247 135.11C160.23 135.086 160.203 135.071 160.174 135.067C160.145 135.063 160.115 135.071 160.092 135.089C160.068 135.106 160.053 135.133 160.049 135.162L159.929 135.532C159.912 135.576 159.882 135.614 159.842 135.639C159.802 135.664 159.755 135.676 159.708 135.673C159.661 135.669 159.616 135.651 159.58 135.62C159.544 135.589 159.52 135.548 159.509 135.502C159.349 134.629 158.996 133.992 158.449 133.592C152.869 114.592 154.406 96.7686 163.059 80.1219C176.579 54.1286 198.569 40.6753 229.029 39.762Z" fill="#FF6774"/>
<path d="M245.859 42.2019C255.266 44.5152 263.736 48.4052 271.269 53.8719C294.229 70.5419 306.039 99.4419 299.749 127.562C285.416 116.342 271.199 105.319 257.099 94.4919C256.699 94.1852 255.269 92.9052 252.809 90.6519C251.282 89.2652 249.669 88.1986 247.969 87.4519C230.479 73.0319 203.719 80.0019 198.029 102.632C193.809 119.392 202.459 134.072 218.599 139.672L218.699 139.942C218.766 140.122 218.709 140.242 218.529 140.302C218.436 140.335 218.339 140.369 218.239 140.402C218.22 140.407 218.203 140.417 218.19 140.431C218.177 140.445 218.169 140.463 218.166 140.482C218.163 140.501 218.165 140.521 218.173 140.538C218.18 140.556 218.193 140.571 218.209 140.582C219.749 141.642 221.572 142.332 223.679 142.652C223.866 142.685 223.969 142.825 223.989 143.072C224.009 143.292 224.119 143.449 224.319 143.542L274.869 167.932L269.819 172.382C242.209 189.622 213.879 189.092 186.559 171.902C175.659 164.149 167.382 154.295 161.729 142.342L158.449 133.592C158.996 133.992 159.349 134.629 159.509 135.502C159.519 135.548 159.544 135.589 159.58 135.62C159.616 135.651 159.661 135.669 159.708 135.673C159.755 135.676 159.802 135.664 159.842 135.639C159.881 135.613 159.912 135.576 159.929 135.532L160.049 135.162C160.053 135.133 160.068 135.106 160.092 135.089C160.115 135.071 160.145 135.063 160.174 135.067C160.203 135.071 160.23 135.086 160.247 135.11C160.265 135.133 160.273 135.163 160.269 135.192C160.336 136.005 160.762 136.509 161.549 136.702C161.856 136.782 162.099 136.689 162.279 136.422C162.519 136.069 162.896 135.952 163.409 136.072C163.722 136.139 164.019 136.095 164.299 135.942C167.289 134.312 169.599 133.382 171.479 130.292C178.059 119.452 183.949 110.892 192.199 98.3619C195.059 94.0152 198.029 89.7419 201.109 85.5419C202.156 84.1086 203.482 82.8752 205.089 81.8419C211.742 77.5619 218.009 72.7885 223.889 67.5219C227.159 64.5919 232.369 61.0719 235.659 56.9819C239.019 52.8086 242.419 47.8819 245.859 42.2019Z" fill="#FF3B4F"/>
<path d="M334.719 101.062C338.206 130.629 330.569 156.565 311.809 178.872C304.656 187.379 295.662 197.712 284.829 209.872L284.819 208.202C284.819 207.869 284.652 207.715 284.319 207.742C279.826 208.102 274.642 207.795 268.769 206.822C267.929 206.689 266.102 206.699 263.289 206.852L269.819 172.382L274.869 167.932C287.769 156.992 296.062 143.535 299.749 127.562C306.039 99.4419 294.229 70.5419 271.269 53.8719L272.819 52.9719C272.952 52.8935 273.103 52.8529 273.257 52.8547C273.41 52.8564 273.56 52.9005 273.689 52.9819C281.636 57.9486 289.556 62.9286 297.449 67.9219C311.722 76.9686 323.426 88.6653 332.559 103.012C332.683 103.208 332.871 103.355 333.091 103.428C333.312 103.5 333.55 103.494 333.766 103.41C333.983 103.327 334.163 103.17 334.277 102.968C334.39 102.766 334.43 102.53 334.389 102.302C334.336 102.009 334.446 101.595 334.719 101.062Z" fill="#E8AC37"/>
<path d="M247.969 87.4519C271.269 111.072 250.549 147.202 218.599 139.672C202.459 134.072 193.809 119.392 198.029 102.632C203.719 80.0019 230.479 73.0319 247.969 87.4519Z" fill="white"/>
<path d="M299.749 127.562C296.062 143.535 287.769 156.992 274.869 167.932L224.319 143.542C224.119 143.449 224.009 143.292 223.989 143.072C223.969 142.825 223.866 142.685 223.679 142.652C221.572 142.332 219.749 141.642 218.209 140.582C218.193 140.571 218.18 140.556 218.173 140.538C218.165 140.521 218.162 140.501 218.166 140.482C218.169 140.463 218.177 140.445 218.19 140.431C218.203 140.417 218.22 140.407 218.239 140.402C218.339 140.369 218.436 140.335 218.529 140.302C218.709 140.242 218.766 140.122 218.699 139.942L218.599 139.672C250.549 147.202 271.269 111.072 247.969 87.4519C249.669 88.1986 251.282 89.2652 252.809 90.6519C255.269 92.9052 256.699 94.1852 257.099 94.4919C271.199 105.319 285.416 116.342 299.749 127.562Z" fill="#BA1E42"/>
<path d="M407.539 127.112C407.372 127.125 407.239 127.168 407.139 127.242C406.939 127.388 406.746 127.382 406.559 127.222C394.826 117.042 381.119 112.699 365.439 114.192C364.679 114.259 364.346 114.672 364.439 115.432C368.729 151.982 352.229 187.872 321.059 207.632C316.806 210.325 312.579 212.912 308.379 215.392C308.137 215.536 307.934 215.737 307.789 215.978C307.644 216.219 307.562 216.492 307.549 216.772C307.396 220.245 306.116 223.225 303.709 225.712C303.555 225.872 303.444 226.069 303.385 226.284C303.327 226.498 303.324 226.724 303.376 226.939C303.428 227.155 303.533 227.353 303.682 227.516C303.831 227.679 304.019 227.802 304.229 227.872C305.002 228.132 305.212 228.768 304.859 229.782C303.729 233.042 301.259 234.702 305.519 237.562C305.644 237.644 305.745 237.758 305.814 237.891C305.882 238.024 305.915 238.172 305.909 238.322C305.782 241.402 305.116 244.359 303.909 247.192C303.756 247.545 303.769 247.895 303.949 248.242L305.519 251.232C305.616 251.427 305.648 251.644 305.609 251.852C304.989 255.282 302.879 257.922 302.199 260.922C301.539 263.808 301.072 266.742 300.799 269.722C300.766 270.062 300.826 270.382 300.979 270.682C301.266 271.268 301.116 271.715 300.529 272.022C300.229 272.175 300.049 272.418 299.989 272.752C298.909 278.822 295.489 282.782 294.219 289.052C292.539 297.302 289.889 305.152 286.009 314.732C283.609 320.642 282.209 327.092 279.149 332.322C276.649 336.602 273.822 340.655 270.669 344.482C268.969 346.552 268.479 349.032 266.949 351.322C264.739 354.642 264.009 359.562 262.239 361.902C260.479 364.215 258.989 366.689 257.769 369.322C255.502 374.202 253.296 379.108 251.149 384.042C251.022 384.342 250.819 384.582 250.539 384.762C249.699 385.302 249.049 386.012 248.589 386.892C246.276 391.359 243.749 395.698 241.009 399.912C238.579 403.652 238.099 408.002 236.909 412.212C236.816 412.525 236.656 412.798 236.429 413.032C235.636 413.845 234.876 414.688 234.149 415.562C232.169 417.932 231.619 422.832 230.459 425.852C230.449 425.874 230.431 425.893 230.409 425.904C230.387 425.915 230.362 425.919 230.338 425.914C230.314 425.91 230.292 425.897 230.276 425.879C230.26 425.86 230.25 425.836 230.249 425.812V425.402C230.25 425.378 230.243 425.355 230.229 425.336C230.216 425.318 230.196 425.304 230.172 425.297C230.149 425.291 230.124 425.291 230.1 425.299C230.076 425.307 230.054 425.322 230.039 425.342C228.319 427.769 227.442 430.432 227.409 433.332C227.402 433.745 227.606 433.965 228.019 433.992L229.849 434.102C230.109 434.115 230.239 434.252 230.239 434.512C230.279 440.032 229.249 444.922 234.339 449.072C234.452 449.161 234.53 449.288 234.561 449.43C234.592 449.572 234.574 449.721 234.509 449.852C234.142 450.605 234.336 451.179 235.089 451.572C235.182 451.625 235.279 451.635 235.379 451.602C235.466 451.568 235.559 451.535 235.659 451.502C235.667 451.5 235.676 451.5 235.684 451.502C235.692 451.505 235.7 451.509 235.706 451.515C235.712 451.521 235.716 451.529 235.718 451.537C235.721 451.545 235.721 451.554 235.719 451.562C235.626 451.788 235.612 452.085 235.679 452.452C226.469 456.582 219.819 451.882 214.969 444.222C186.369 399.042 158.199 353.582 129.569 308.432C103.056 266.618 78.5056 227.262 55.9189 190.362C51.3289 182.862 47.7989 173.522 48.0089 164.882C48.5089 144.172 68.3689 132.672 87.2489 135.032C97.8222 136.345 110.019 139.179 123.839 143.532L126.419 149.522C133.419 166.662 142.609 177.182 155.949 192.492C167.802 206.092 179.846 219.532 192.079 232.812C194.539 235.492 197.149 239.372 200.239 242.312L201.589 248.342L209.609 286.182L199.239 276.242C199.019 276.028 198.759 275.878 198.459 275.792C197.826 275.605 197.596 275.692 197.769 276.052C197.799 276.114 197.815 276.182 197.816 276.252C197.816 276.321 197.801 276.389 197.771 276.452C197.741 276.514 197.697 276.569 197.643 276.612C197.589 276.656 197.526 276.686 197.459 276.702L195.579 277.102C195.512 277.116 195.45 277.146 195.397 277.189C195.344 277.232 195.302 277.287 195.275 277.35C195.247 277.413 195.235 277.481 195.24 277.549C195.244 277.617 195.264 277.683 195.299 277.742C197.139 280.812 195.759 281.782 196.529 284.872C196.979 286.702 196.659 287.832 195.719 289.322C195.486 289.689 195.562 289.975 195.949 290.182L197.709 291.102C197.847 291.174 197.968 291.274 198.065 291.396C198.162 291.518 198.232 291.66 198.271 291.81C198.309 291.961 198.316 292.119 198.29 292.272C198.264 292.426 198.205 292.572 198.119 292.702C194.526 298.082 190.092 302.669 184.819 306.462C184.514 306.676 184.286 306.981 184.169 307.332C182.509 312.312 181.459 314.172 177.749 317.882C177.522 318.115 177.439 318.392 177.499 318.712C178.199 322.382 174.879 324.762 173.779 328.342C173.742 328.466 173.676 328.579 173.587 328.673C173.499 328.767 173.39 328.838 173.269 328.882C171.816 329.382 170.906 330.398 170.539 331.932C170.479 332.185 170.576 332.279 170.829 332.212L173.739 331.462C173.845 331.433 173.958 331.433 174.064 331.46C174.171 331.488 174.269 331.542 174.349 331.619C174.428 331.695 174.486 331.791 174.518 331.897C174.55 332.002 174.553 332.114 174.529 332.222C173.916 335.088 173.916 337.942 174.529 340.782C174.569 340.988 174.666 341.018 174.819 340.872L175.059 340.622C175.326 340.355 175.629 340.305 175.969 340.472C176.689 340.825 177.479 340.799 178.339 340.392C178.502 340.315 178.634 340.185 178.714 340.023C178.794 339.862 178.817 339.678 178.779 339.502L178.449 338.032C178.434 337.956 178.437 337.877 178.46 337.804C178.483 337.73 178.524 337.664 178.579 337.612L178.799 337.382C178.856 337.318 178.935 337.278 179.02 337.269C179.105 337.261 179.191 337.285 179.259 337.337C179.327 337.389 179.373 337.464 179.388 337.549C179.403 337.633 179.385 337.72 179.339 337.792C178.592 339.165 178.789 340.199 179.929 340.892C180.249 341.085 180.416 341.368 180.429 341.742C180.569 345.892 179.419 349.852 179.709 353.772C180.136 359.505 180.362 365.248 180.389 371.002C180.389 371.282 180.472 371.532 180.639 371.752L181.529 372.942C181.547 372.964 181.571 372.98 181.599 372.987C181.627 372.993 181.656 372.991 181.682 372.98C181.708 372.968 181.73 372.949 181.744 372.924C181.758 372.899 181.763 372.87 181.759 372.842C181.732 372.742 181.729 372.642 181.749 372.542C181.764 372.472 181.796 372.407 181.842 372.353C181.888 372.299 181.947 372.257 182.014 372.231C182.08 372.205 182.152 372.196 182.223 372.205C182.293 372.214 182.361 372.24 182.419 372.282C185.879 374.822 188.002 378.169 188.789 382.322C188.862 382.709 189.066 383.005 189.399 383.212C190.626 383.979 191.059 385.155 190.699 386.742C190.626 387.068 190.699 387.358 190.919 387.612L193.009 390.062C193.229 390.328 193.329 390.635 193.309 390.982C193.209 392.582 193.486 394.115 194.139 395.582C194.165 395.648 194.179 395.716 194.179 395.782L194.229 399.252C194.229 399.318 194.206 399.378 194.159 399.432C194.059 399.532 193.952 399.622 193.839 399.702C193.619 399.862 193.582 400.058 193.729 400.292L210.059 425.762C210.372 426.255 210.496 426.212 210.429 425.632C210.316 424.692 210.546 423.845 211.119 423.092C211.332 422.812 211.399 422.502 211.319 422.162C210.899 420.282 210.852 418.388 211.179 416.482C211.259 415.995 211.459 415.942 211.779 416.322L212.789 417.522C212.962 417.729 213.089 417.705 213.169 417.452C213.529 416.359 213.699 415.248 213.679 414.122C213.649 412.502 214.139 411.422 214.649 409.982C214.706 409.821 214.822 409.688 214.973 409.61C215.123 409.532 215.297 409.515 215.459 409.562L217.579 410.172C217.984 410.288 218.418 410.254 218.802 410.076C219.185 409.898 219.493 409.588 219.669 409.202C221.089 406.042 223.829 403.692 225.389 401.212C228.469 396.279 231.329 391.225 233.969 386.052C234.102 385.798 234.482 385.539 235.109 385.272C235.416 385.139 235.632 384.918 235.759 384.612C237.152 381.265 239.062 378.245 241.489 375.552C241.716 375.298 241.852 375.005 241.899 374.672C242.619 370.122 246.889 367.782 245.679 362.582C245.602 362.26 245.648 361.921 245.809 361.632C247.229 359.059 249.056 356.802 251.289 354.862C251.562 354.628 251.882 354.532 252.249 354.572C253.809 354.765 255.182 354.318 256.369 353.232C256.669 352.952 256.862 352.615 256.949 352.222L258.269 346.362C258.342 346.035 258.489 345.745 258.709 345.492C259.629 344.445 260.106 343.192 260.139 341.732C260.146 341.325 260.349 341.075 260.749 340.982C265.199 339.952 269.999 339.492 271.929 334.992C278.699 319.232 280.569 302.812 285.729 285.032C291.819 264.032 297.909 242.892 303.159 221.672C303.729 219.402 303.119 217.542 300.599 217.372C300.246 217.345 299.979 217.485 299.799 217.792C298.566 219.839 296.816 221.278 294.549 222.112C294.489 222.132 294.479 222.122 294.519 222.082C296.139 220.402 297.399 218.462 298.299 216.262C298.446 215.902 298.329 215.775 297.949 215.882C296.582 216.269 295.516 217.045 294.749 218.212C294.416 218.718 294.249 218.668 294.249 218.062V215.422C294.249 215.286 294.279 215.152 294.338 215.032C294.398 214.912 294.483 214.81 294.589 214.732L297.429 212.602C297.736 212.369 297.899 212.062 297.919 211.682C298.039 209.495 298.809 207.562 300.229 205.882C301.369 204.542 301.209 204.365 299.749 205.352L296.709 207.402C296.429 207.588 296.119 207.705 295.779 207.752C293.932 207.998 292.429 208.782 291.269 210.102C285.989 216.149 280.652 221.302 275.259 225.562C273.286 227.122 270.992 228.018 268.379 228.252L284.829 209.872C295.662 197.712 304.656 187.378 311.809 178.872C330.569 156.565 338.206 130.628 334.719 101.062L333.179 92.5318C338.189 91.6218 343.509 90.2918 348.329 90.0018C376.496 88.2818 396.232 100.652 407.539 127.112Z" fill="#47C2AF"/>
<path d="M407.539 127.112C414.549 145.652 413.849 163.402 404.349 180.692C401.622 185.652 398.786 190.542 395.839 195.362C345.132 278.249 294.432 361.139 243.739 444.032C241.592 447.545 238.906 450.352 235.679 452.452C235.612 452.085 235.626 451.789 235.719 451.562C235.721 451.554 235.721 451.545 235.718 451.537C235.716 451.529 235.712 451.521 235.706 451.515C235.7 451.509 235.692 451.505 235.684 451.503C235.676 451.5 235.667 451.5 235.659 451.502C235.559 451.535 235.466 451.569 235.379 451.602C235.279 451.635 235.182 451.625 235.089 451.572C234.336 451.179 234.142 450.605 234.509 449.852C234.574 449.721 234.592 449.572 234.562 449.43C234.531 449.288 234.452 449.161 234.339 449.072C229.249 444.922 230.279 440.032 230.239 434.512C230.239 434.252 230.109 434.115 229.849 434.102L228.019 433.992C227.606 433.965 227.402 433.745 227.409 433.332C227.442 430.432 228.319 427.769 230.039 425.342C230.055 425.322 230.076 425.307 230.1 425.299C230.124 425.292 230.149 425.291 230.173 425.297C230.196 425.304 230.216 425.318 230.23 425.337C230.243 425.355 230.25 425.378 230.249 425.402V425.812C230.25 425.837 230.26 425.86 230.276 425.879C230.292 425.897 230.314 425.91 230.338 425.914C230.363 425.919 230.388 425.915 230.41 425.904C230.431 425.893 230.449 425.874 230.459 425.852C231.619 422.832 232.169 417.932 234.149 415.562C234.876 414.689 235.636 413.845 236.429 413.032C236.656 412.799 236.816 412.525 236.909 412.212C238.099 408.002 238.579 403.652 241.009 399.912C243.749 395.699 246.276 391.359 248.589 386.892C249.049 386.012 249.699 385.302 250.539 384.762C250.819 384.582 251.022 384.342 251.149 384.042C253.296 379.109 255.502 374.202 257.769 369.322C258.989 366.689 260.479 364.215 262.239 361.902C264.009 359.562 264.739 354.642 266.949 351.322C268.479 349.032 268.969 346.552 270.669 344.482C273.822 340.655 276.649 336.602 279.149 332.322C282.209 327.092 283.609 320.642 286.009 314.732C289.889 305.152 292.539 297.302 294.219 289.052C295.489 282.782 298.909 278.822 299.989 272.752C300.049 272.419 300.229 272.175 300.529 272.022C301.116 271.715 301.266 271.269 300.979 270.682C300.826 270.382 300.766 270.062 300.799 269.722C301.072 266.742 301.539 263.809 302.199 260.922C302.879 257.922 304.989 255.282 305.609 251.852C305.648 251.644 305.616 251.427 305.519 251.232L303.949 248.242C303.769 247.895 303.756 247.545 303.909 247.192C305.116 244.359 305.782 241.402 305.909 238.322C305.915 238.172 305.882 238.024 305.814 237.891C305.745 237.758 305.644 237.644 305.519 237.562C301.259 234.702 303.729 233.042 304.859 229.782C305.212 228.769 305.002 228.132 304.229 227.872C304.02 227.802 303.832 227.68 303.682 227.517C303.533 227.354 303.428 227.155 303.376 226.94C303.324 226.724 303.327 226.498 303.386 226.284C303.444 226.069 303.555 225.872 303.709 225.712C306.116 223.225 307.396 220.245 307.549 216.772C307.562 216.492 307.644 216.219 307.789 215.978C307.934 215.737 308.137 215.536 308.379 215.392C312.579 212.912 316.806 210.325 321.059 207.632C352.229 187.872 368.729 151.982 364.439 115.432C364.346 114.672 364.679 114.259 365.439 114.192C381.119 112.699 394.826 117.042 406.559 127.222C406.746 127.382 406.939 127.389 407.139 127.242C407.239 127.169 407.372 127.125 407.539 127.112Z" fill="#59D1B9"/>
<path d="M161.729 142.342C167.382 154.295 175.659 164.149 186.559 171.902L200.239 242.312C197.149 239.372 194.539 235.492 192.079 232.812C179.846 219.532 167.802 206.092 155.949 192.492C142.609 177.182 133.419 166.662 126.419 149.522C127.192 148.235 127.062 147.212 126.029 146.452C125.822 146.299 125.732 146.095 125.759 145.842C125.819 145.249 125.672 144.709 125.319 144.222C125.146 143.982 125.209 143.849 125.509 143.822L126.149 143.772C126.206 143.766 126.26 143.745 126.305 143.71C126.351 143.676 126.386 143.63 126.406 143.577C126.426 143.525 126.43 143.468 126.418 143.414C126.406 143.36 126.379 143.311 126.339 143.272L126.069 143.012C125.916 142.852 125.946 142.752 126.159 142.712C127.506 142.479 128.749 141.975 129.889 141.202C130.149 141.022 130.439 140.932 130.759 140.932C134.319 140.885 137.372 139.892 139.919 137.952C142.389 136.072 145.279 135.132 147.209 133.962C151.169 131.562 155.369 129.322 157.249 135.752C157.456 136.459 158.106 137.819 159.199 139.832C159.352 140.119 159.439 140.425 159.459 140.752C159.506 141.692 160.262 142.222 161.729 142.342Z" fill="#FFD362"/>
<path d="M186.559 171.902C213.879 189.092 242.209 189.622 269.819 172.382L263.289 206.852L257.639 235.062L254.529 233.822C254.196 233.689 253.936 233.775 253.749 234.082L253.619 234.312C253.559 234.412 253.472 234.455 253.359 234.442L245.599 233.702C245.192 233.662 244.952 233.842 244.879 234.242L244.499 236.372C244.432 236.759 244.202 236.969 243.809 237.002C241.022 237.215 238.252 237.085 235.499 236.612C235.072 236.539 234.742 236.569 234.509 236.702C234.129 236.922 234.016 237.272 234.169 237.752C234.296 238.119 234.166 238.309 233.779 238.322C232.619 238.355 231.599 238.709 230.719 239.382C230.452 239.589 230.152 239.712 229.819 239.752C224.489 240.452 221.759 243.842 217.249 244.792C216.902 244.865 216.646 245.055 216.479 245.362C216.346 245.609 216.142 245.659 215.869 245.512C215.536 245.339 215.182 245.289 214.809 245.362C210.909 246.152 205.159 244.092 202.969 248.072C202.961 248.084 202.95 248.094 202.938 248.1C202.925 248.107 202.91 248.109 202.896 248.108C202.882 248.107 202.868 248.102 202.856 248.094C202.844 248.086 202.835 248.075 202.829 248.062C202.802 247.982 202.776 247.899 202.749 247.812C202.738 247.771 202.718 247.733 202.692 247.701C202.665 247.668 202.632 247.641 202.594 247.622C202.556 247.604 202.515 247.593 202.473 247.591C202.43 247.589 202.388 247.596 202.349 247.612C202.002 247.745 201.749 247.989 201.589 248.342L200.239 242.312L186.559 171.902Z" fill="#EA7D9C"/>
<path d="M209.609 286.182C210.129 289.109 210.822 292.499 211.689 296.352C213.519 304.522 220.089 311.002 228.979 309.792C241.149 308.132 243.859 298.332 246.129 287.982C249.062 274.589 251.999 261.195 254.939 247.802C255.426 245.595 255.996 243.425 256.649 241.292L268.379 228.252C270.992 228.019 273.286 227.122 275.259 225.562C280.652 221.302 285.989 216.149 291.269 210.102C292.429 208.782 293.932 207.999 295.779 207.752C296.119 207.705 296.429 207.589 296.709 207.402L299.749 205.352C301.209 204.365 301.369 204.542 300.229 205.882C298.809 207.562 298.039 209.495 297.919 211.682C297.899 212.062 297.736 212.369 297.429 212.602L294.589 214.732C294.483 214.81 294.398 214.912 294.338 215.032C294.279 215.152 294.249 215.286 294.249 215.422V218.062C294.249 218.669 294.416 218.719 294.749 218.212C295.516 217.045 296.582 216.269 297.949 215.882C298.329 215.775 298.446 215.902 298.299 216.262C297.399 218.462 296.139 220.402 294.519 222.082C294.479 222.122 294.489 222.132 294.549 222.112C296.816 221.279 298.566 219.839 299.799 217.792C299.979 217.485 300.246 217.345 300.599 217.372C303.119 217.542 303.729 219.402 303.159 221.672C297.909 242.892 291.819 264.032 285.729 285.032C280.569 302.812 278.699 319.232 271.929 334.992C269.999 339.492 265.199 339.952 260.749 340.982C260.349 341.075 260.146 341.325 260.139 341.732C260.106 343.192 259.629 344.445 258.709 345.492C258.489 345.745 258.342 346.035 258.269 346.362L256.949 352.222C256.862 352.615 256.669 352.952 256.369 353.232C255.182 354.319 253.809 354.765 252.249 354.572C251.882 354.532 251.562 354.629 251.289 354.862C249.056 356.802 247.229 359.059 245.809 361.632C245.648 361.921 245.602 362.26 245.679 362.582C246.889 367.782 242.619 370.122 241.899 374.672C241.852 375.005 241.716 375.299 241.489 375.552C239.062 378.245 237.152 381.265 235.759 384.612C235.632 384.919 235.416 385.139 235.109 385.272C234.482 385.539 234.102 385.799 233.969 386.052C231.329 391.225 228.469 396.279 225.389 401.212C223.829 403.692 221.089 406.042 219.669 409.202C219.493 409.588 219.185 409.898 218.802 410.076C218.418 410.254 217.984 410.288 217.579 410.172L215.459 409.562C215.297 409.515 215.124 409.532 214.973 409.61C214.822 409.688 214.707 409.821 214.649 409.982C214.139 411.422 213.649 412.502 213.679 414.122C213.699 415.249 213.529 416.359 213.169 417.452C213.089 417.705 212.962 417.729 212.789 417.522L211.779 416.322C211.459 415.942 211.259 415.995 211.179 416.482C210.852 418.389 210.899 420.282 211.319 422.162C211.399 422.502 211.332 422.812 211.119 423.092C210.546 423.845 210.316 424.692 210.429 425.632C210.496 426.212 210.372 426.255 210.059 425.762L193.729 400.292C193.582 400.059 193.619 399.862 193.839 399.702C193.952 399.622 194.059 399.532 194.159 399.432C194.206 399.379 194.229 399.319 194.229 399.252L194.179 395.782C194.179 395.716 194.165 395.648 194.139 395.582C193.486 394.115 193.209 392.582 193.309 390.982C193.329 390.635 193.229 390.329 193.009 390.062L190.919 387.612C190.699 387.359 190.626 387.069 190.699 386.742C191.059 385.155 190.626 383.979 189.399 383.212C189.066 383.005 188.862 382.709 188.789 382.322C188.002 378.169 185.879 374.822 182.419 372.282C182.361 372.24 182.294 372.214 182.223 372.205C182.152 372.197 182.08 372.205 182.014 372.231C181.947 372.257 181.888 372.299 181.842 372.353C181.796 372.407 181.764 372.472 181.749 372.542C181.729 372.642 181.732 372.742 181.759 372.842C181.763 372.87 181.758 372.899 181.744 372.924C181.73 372.949 181.708 372.968 181.682 372.98C181.656 372.991 181.627 372.993 181.599 372.987C181.571 372.98 181.547 372.964 181.529 372.942L180.639 371.752C180.472 371.532 180.389 371.282 180.389 371.002C180.362 365.249 180.136 359.505 179.709 353.772C179.419 349.852 180.569 345.892 180.429 341.742C180.416 341.369 180.249 341.085 179.929 340.892C178.789 340.199 178.592 339.165 179.339 337.792C179.385 337.72 179.403 337.633 179.388 337.549C179.373 337.464 179.327 337.389 179.259 337.337C179.191 337.285 179.105 337.261 179.02 337.269C178.935 337.278 178.856 337.318 178.799 337.382L178.579 337.612C178.524 337.664 178.483 337.73 178.46 337.804C178.438 337.877 178.434 337.956 178.449 338.032L178.779 339.502C178.817 339.678 178.794 339.862 178.714 340.023C178.634 340.185 178.502 340.315 178.339 340.392C177.479 340.799 176.689 340.825 175.969 340.472C175.629 340.305 175.326 340.355 175.059 340.622L174.819 340.872C174.666 341.019 174.569 340.988 174.529 340.782C173.916 337.942 173.916 335.088 174.529 332.222C174.553 332.114 174.55 332.002 174.518 331.897C174.486 331.791 174.428 331.695 174.349 331.619C174.269 331.542 174.171 331.488 174.064 331.46C173.958 331.433 173.845 331.433 173.739 331.462L170.829 332.212C170.576 332.279 170.479 332.185 170.539 331.932C170.906 330.399 171.816 329.382 173.269 328.882C173.39 328.839 173.499 328.767 173.587 328.673C173.676 328.579 173.742 328.466 173.779 328.342C174.879 324.762 178.199 322.382 177.499 318.712C177.439 318.392 177.522 318.115 177.749 317.882C181.459 314.172 182.509 312.312 184.169 307.332C184.286 306.981 184.514 306.676 184.819 306.462C190.092 302.669 194.526 298.082 198.119 292.702C198.205 292.572 198.264 292.426 198.29 292.272C198.316 292.119 198.309 291.961 198.271 291.81C198.232 291.66 198.162 291.518 198.065 291.396C197.968 291.274 197.847 291.174 197.709 291.102L195.949 290.182C195.562 289.975 195.486 289.689 195.719 289.322C196.659 287.832 196.979 286.702 196.529 284.872C195.759 281.782 197.139 280.812 195.299 277.742C195.264 277.683 195.244 277.617 195.24 277.549C195.235 277.481 195.247 277.413 195.275 277.35C195.302 277.287 195.344 277.232 195.397 277.189C195.45 277.146 195.512 277.116 195.579 277.102L197.459 276.702C197.526 276.686 197.589 276.656 197.643 276.612C197.697 276.569 197.741 276.514 197.771 276.452C197.801 276.389 197.816 276.321 197.816 276.252C197.815 276.182 197.799 276.114 197.769 276.052C197.596 275.692 197.826 275.605 198.459 275.792C198.759 275.879 199.019 276.029 199.239 276.242L209.609 286.182Z" fill="#47C2BE"/>
<path d="M284.829 209.872L268.379 228.252L256.649 241.292L257.639 235.062L263.289 206.852C266.102 206.699 267.929 206.689 268.769 206.822C274.642 207.795 279.826 208.102 284.319 207.742C284.652 207.715 284.819 207.869 284.819 208.202L284.829 209.872Z" fill="#FFD362"/>
<path d="M257.639 235.062L256.649 241.292C255.996 243.425 255.426 245.595 254.939 247.802C251.999 261.195 249.062 274.589 246.129 287.982C243.859 298.332 241.149 308.132 228.979 309.792C220.089 311.002 213.519 304.522 211.689 296.352C210.822 292.498 210.129 289.109 209.609 286.182L201.589 248.342C201.749 247.989 202.002 247.745 202.349 247.612C202.388 247.596 202.43 247.589 202.473 247.591C202.515 247.593 202.556 247.604 202.594 247.622C202.632 247.641 202.665 247.668 202.692 247.701C202.718 247.733 202.738 247.771 202.749 247.812C202.776 247.899 202.802 247.982 202.829 248.062C202.835 248.075 202.844 248.086 202.856 248.094C202.868 248.102 202.882 248.107 202.896 248.108C202.91 248.109 202.925 248.107 202.938 248.1C202.95 248.094 202.961 248.084 202.969 248.072C205.159 244.092 210.909 246.152 214.809 245.362C215.182 245.289 215.536 245.339 215.869 245.512C216.142 245.659 216.346 245.609 216.479 245.362C216.646 245.055 216.902 244.865 217.249 244.792C221.759 243.842 224.489 240.452 229.819 239.752C230.152 239.712 230.452 239.589 230.719 239.382C231.599 238.709 232.619 238.355 233.779 238.322C234.166 238.309 234.296 238.119 234.169 237.752C234.016 237.272 234.129 236.922 234.509 236.702C234.742 236.569 235.072 236.539 235.499 236.612C238.252 237.085 241.022 237.215 243.809 237.002C244.202 236.969 244.432 236.759 244.499 236.372L244.879 234.242C244.952 233.842 245.192 233.662 245.599 233.702L253.359 234.442C253.472 234.455 253.559 234.412 253.619 234.312L253.749 234.082C253.936 233.775 254.196 233.689 254.529 233.822L257.639 235.062Z" fill="#EB6AC2"/>
</svg>
